<svg width="128" height="128" viewBox="0 0 128 128" fill="none" xmlns="http://www.w3.org/2000/svg">
<rect width="128" height="128" rx="16" fill="#016101"/>
<path d="M83.6219 40.72C85.0085 41.4133 85.8085 42.5067 86.0219 44C86.2885 45.4933 85.9152 46.8533 84.9019 48.08C84.2085 49.04 83.3019 49.5733 82.1819 49.68C81.1152 49.7867 80.0219 49.5733 78.9019 49.04C77.6219 48.4533 76.2619 48 74.8219 47.68C73.4352 47.36 71.9685 47.2 70.4219 47.2C67.5419 47.2 64.9552 47.6533 62.6619 48.56C60.4219 49.4667 58.5019 50.7733 56.9019 52.48C55.3019 54.1333 54.0752 56.1067 53.2219 58.4C52.4219 60.6933 52.0219 63.2267 52.0219 66C52.0219 69.2533 52.4752 72.08 53.3819 74.48C54.3419 76.88 55.6485 78.88 57.3019 80.48C58.9552 82.08 60.9019 83.28 63.1419 84.08C65.3819 84.8267 67.8085 85.2 70.4219 85.2C71.8619 85.2 73.3019 85.0667 74.7419 84.8C76.1819 84.5333 77.5685 84.0533 78.9019 83.36C80.0219 82.8267 81.1152 82.64 82.1819 82.8C83.3019 82.96 84.2352 83.52 84.9819 84.48C86.0485 85.8133 86.4219 87.2 86.1019 88.64C85.8352 90.0267 85.0352 91.04 83.7019 91.68C82.3152 92.3733 80.8752 92.96 79.3819 93.44C77.9419 93.8667 76.4752 94.1867 74.9819 94.4C73.4885 94.6667 71.9685 94.8 70.4219 94.8C66.5819 94.8 62.9285 94.1867 59.4619 92.96C56.0485 91.7333 52.9819 89.92 50.2619 87.52C47.5952 85.12 45.4885 82.1333 43.9419 78.56C42.3952 74.9333 41.6219 70.7467 41.6219 66C41.6219 61.8933 42.3152 58.1067 43.7019 54.64C45.1419 51.1733 47.1419 48.1867 49.7019 45.68C52.3152 43.12 55.3819 41.1467 58.9019 39.76C62.4219 38.32 66.2619 37.6 70.4219 37.6C72.7685 37.6 75.0619 37.8667 77.3019 38.4C79.5419 38.9333 81.6485 39.7067 83.6219 40.72Z" fill="white"/>
</svg>
